<svg xmlns="http://www.w3.org/2000/svg" viewBox="0 0 200 60" fill="none">
  <path d="M22 38c-4-2-8-1-12 1-2 1-4 3-5 5l-3 5c-1 1 0 3 1 3h18c2 0 4-2 4-4v-7c0-2-1-3-3-3z" fill="#111827"/>
  <path d="M16 30c-3 0-5 1-7 2-2 2-4 4-4 7 0 2 1 3 2 4l3-6c1-2 3-3 5-3l3 1-2-5z" fill="#111827" opacity="0.8"/>
  <rect x="8" y="40" width="24" height="5" rx="2" fill="#111827"/>
  <circle cx="12" cy="45" r="2" fill="#374151"/>
  <circle cx="24" cy="45" r="2" fill="#374151"/>
  <text x="52" y="38" font-family="system-ui, sans-serif" font-size="26" font-weight="700" fill="#111827">Shoesy</text>
  <text x="52" y="54" font-family="system-ui, sans-serif" font-size="10" fill="#6B7280" letter-spacing="3">PREMIUM FOOTWEAR</text>
</svg>
